# xmcd
#
# Track frame offsets: 
#        150
#        15736
#        29405
#        42454
#        59677
#        83183
#        98657
#        114748
#        131881
#        148682
#        169596
#        188786
#        210484
#        228342
#
# Disc length: 3215 seconds
#
# Revision: 0
# Processed by: cddbd v1.5.2PL0 Copyright (c) Steve Scherf et al.
# Submitted via: ExactAudioCopyFreeDBPlugin 1.0
#
DISCID=c50c8d0e
DTITLE=Martina McBride - Emotion
DYEAR=1999
DGENRE=Country
TTITLE0=Do What You Do
TTITLE1=Anything's Better than Feelin' the Blues
TTITLE2=I Love You (Original Version)
TTITLE3=Make Me Believe
TTITLE4=Love's the Only House
TTITLE5=There You Are
TTITLE6=It's My Time
TTITLE7=I Ain't Goin' Nowhere
TTITLE8=Anything and Everything
TTITLE9=From the Ashes
TTITLE10=Good Bye
TTITLE11=This Uncivil War
TTITLE12=For the Love of a Woman
TTITLE13=I Love You
EXTD=
EXTT0=
EXTT1=
EXTT2=
EXTT3=
EXTT4=
EXTT5=
EXTT6=
EXTT7=
EXTT8=
EXTT9=
EXTT10=
EXTT11=
EXTT12=
EXTT13=
PLAYORDER=
